# Blender v3.6.4 OBJ File: 'fir.blend'
# www.blender.org
o Cube_Cube.001
v -0.153025 -0.235513 0.151611
v -0.153025 0.082266 0.151611
v -0.153025 -0.235513 -0.166168
v -0.153025 0.082266 -0.166168
v 0.164754 -0.235513 0.151611
v 0.164754 0.082266 0.151611
v 0.164754 -0.235513 -0.166168
v 0.164754 0.082266 -0.166168
v 0.002389 1.110300 -0.229807
v 0.115562 1.108457 -0.199441
v 0.198441 1.109393 -0.116592
v 0.265995 1.111996 -0.000240
v 0.147620 1.117941 0.074538
v 0.121990 1.123482 0.203547
v 0.008927 1.124495 0.151251
v -0.119092 1.129908 0.205172
v -0.135936 1.125392 0.073619
v -0.223815 1.124798 -0.003685
v -0.133024 1.119315 -0.085534
v -0.110754 1.114428 -0.199553
v -0.048956 1.114030 -0.166835
v 0.005959 0.012936 -0.738911
v 0.773462 0.013083 0.003104
v 0.374849 0.012701 0.649696
v -0.548433 0.012361 0.302965
v -0.560240 0.012467 -0.330962
v 0.464035 -0.006043 -0.427914
v 0.492339 0.058670 -0.458517
v 0.658764 -0.006043 0.150387
v 0.687576 0.058648 0.184470
v 0.503285 0.057972 0.503620
v -0.199747 -0.006043 0.643759
v -0.184382 0.057055 0.687807
v -0.503534 0.056898 0.503593
v -0.654381 -0.006043 0.153499
v -0.687838 0.057104 0.184465
v -0.687882 0.057610 -0.184084
v -0.463565 -0.006043 -0.486554
v -0.503618 0.058290 -0.503284
v -0.179312 0.058097 -0.640044
v 0.687629 0.059128 -0.184089
v 0.132838 1.620779 -0.189713
v 0.190833 1.625245 -0.121248
v 0.207111 1.637445 -0.033744
v 0.199282 1.654583 0.067678
v 0.092583 1.665609 0.061746
v 0.020728 1.684618 0.130012
v -0.027720 1.676922 0.048076
v -0.131467 1.684875 0.025048
v -0.085203 1.665494 -0.063456
v -0.107020 1.654111 -0.149739
v -0.014598 1.642045 -0.160291
v 0.048667 1.625245 -0.220793
v 0.073361 1.630061 -0.173460
v 0.326830 0.803504 -0.458758
v 0.482546 0.809888 0.344633
v -0.052053 0.815275 0.575369
v -0.479386 0.812181 -0.048312
v -0.208081 0.806785 -0.451556
v 0.477595 0.792170 -0.061909
v 0.509329 0.839083 -0.069199
v 0.345611 0.796468 0.386842
v 0.349241 0.846535 0.420366
v 0.093200 0.849987 0.539726
v -0.410419 0.800135 0.319156
v -0.419601 0.852095 0.353009
v -0.539024 0.850050 0.097013
v -0.480352 0.796491 -0.188591
v -0.514453 0.846557 -0.184403
v -0.352446 0.842547 -0.415831
v -0.079111 0.791734 -0.506595
v -0.096400 0.839102 -0.535233
v 0.167371 0.837074 -0.478501
v 0.511314 0.842508 0.188975
v 0.224361 2.001975 -0.187378
v 0.233153 2.024099 -0.122756
v 0.207634 2.052542 -0.065461
v 0.161092 2.085585 -0.010730
v 0.095723 2.083960 -0.060797
v 0.022087 2.106391 -0.053080
v 0.024882 2.079854 -0.121251
v -0.031604 2.072654 -0.179831
v 0.034066 2.043706 -0.210345
v 0.055566 2.015677 -0.269362
v 0.118618 2.011976 -0.234991
v 0.183615 1.992097 -0.242013
v 0.179907 2.007437 -0.204072
v 0.423258 1.381189 -0.165195
v 0.169875 1.448433 0.404760
v -0.266700 1.467683 0.313736
v -0.262442 1.415437 -0.263465
v 0.084193 1.381693 -0.395887
v 0.344011 1.403508 0.149592
v 0.368726 1.439542 0.156289
v 0.064919 1.440073 0.371763
v 0.054381 1.483422 0.391221
v -0.158546 1.494049 0.353091
v -0.380252 1.434560 -0.002919
v -0.399016 1.477597 0.011142
v -0.362198 1.454822 -0.201038
v -0.202164 1.393188 -0.350709
v -0.223849 1.429792 -0.365761
v -0.021025 1.409210 -0.438878
v 0.188847 1.367276 -0.372850
v 0.191924 1.398592 -0.400774
v 0.332762 1.403228 -0.249367
v 0.257228 1.462822 0.318158
v 0.396588 1.833331 0.000433
v 0.161747 1.939893 0.231076
v -0.136392 1.961881 0.103839
v -0.205619 1.903773 -0.160074
v -0.011217 1.809660 -0.372873
v 0.275849 1.776129 -0.296184
v 0.201928 2.495103 -0.281449
vt 0.625000 0.000000
vt 0.375000 0.250000
vt 0.375000 0.000000
vt 0.625000 0.250000
vt 0.375000 0.500000
vt 0.625000 0.500000
vt 0.375000 0.750000
vt 0.625000 0.750000
vt 0.375000 1.000000
vt 0.125000 0.750000
vt 0.125000 0.500000
vt 0.875000 0.500000
vt 0.625000 1.000000
vt 0.875000 0.750000
vt 0.537996 0.328087
vt 0.421518 0.280026
vt 0.601502 0.089505
vt 0.269626 0.117845
vt 0.288763 0.041869
vt 0.525684 0.454774
vt 0.620223 0.537020
vt 0.315138 0.156549
vt 0.346481 0.184720
vt 0.398748 0.245860
vt 0.622531 0.656686
vt 0.028040 0.207296
vt 0.264860 0.162966
vt 0.267500 0.239394
vt 0.627020 0.105915
vt 0.613660 0.344695
vt 0.024243 0.178067
vt 0.012537 0.143367
vt 0.019952 0.233279
vt 0.018145 0.261396
vt 0.253328 0.316344
vt 0.223775 0.386770
vt 0.558713 0.057003
vt 0.307446 0.113970
vt 0.385755 0.673396
vt 0.351751 0.577057
vt 0.354207 0.539130
vt 0.517275 0.715236
vt 0.656386 0.352923
vt -0.000000 0.282491
vt 0.269944 0.278298
vt 0.574570 0.081093
vt 0.022284 0.194388
vt 0.419903 0.690285
vt 0.208887 0.422751
vt 0.527867 0.010891
vt 0.210723 0.005106
vt 0.535660 0.038105
vt 0.625920 0.498815
vt 0.656386 0.101750
vt 0.537996 0.328087
vt 0.421518 0.280026
vt 0.601502 0.089505
vt 0.269626 0.117845
vt 0.288763 0.041869
vt 0.525684 0.454774
vt 0.620223 0.537020
vt 0.315138 0.156549
vt 0.346481 0.184720
vt 0.398748 0.245860
vt 0.622531 0.656686
vt 0.028040 0.207296
vt 0.264860 0.162966
vt 0.267500 0.239394
vt 0.627020 0.105915
vt 0.613660 0.344695
vt 0.024243 0.178067
vt 0.012537 0.143367
vt 0.019952 0.233279
vt 0.018145 0.261396
vt 0.253328 0.316344
vt 0.223775 0.386770
vt 0.558713 0.057003
vt 0.307446 0.113970
vt 0.385755 0.673396
vt 0.351751 0.577057
vt 0.354207 0.539130
vt 0.517275 0.715236
vt 0.656386 0.352923
vt -0.000000 0.282491
vt 0.269944 0.278298
vt 0.574570 0.081093
vt 0.022284 0.194388
vt 0.419903 0.690285
vt 0.208887 0.422751
vt 0.527867 0.010891
vt 0.210723 0.005106
vt 0.535660 0.038105
vt 0.625920 0.498815
vt 0.656386 0.101750
vt 0.537996 0.328087
vt 0.421518 0.280026
vt 0.601502 0.089505
vt 0.269626 0.117845
vt 0.288763 0.041869
vt 0.525684 0.454774
vt 0.620223 0.537020
vt 0.315138 0.156549
vt 0.346481 0.184720
vt 0.398748 0.245860
vt 0.622531 0.656686
vt 0.028040 0.207296
vt 0.264860 0.162966
vt 0.267500 0.239394
vt 0.627020 0.105915
vt 0.613660 0.344695
vt 0.024243 0.178067
vt 0.012537 0.143367
vt 0.019952 0.233279
vt 0.018145 0.261396
vt 0.253328 0.316344
vt 0.223775 0.386770
vt 0.558713 0.057003
vt 0.307446 0.113970
vt 0.385755 0.673396
vt 0.351751 0.577057
vt 0.354207 0.539130
vt 0.517275 0.715236
vt 0.656386 0.352923
vt -0.000000 0.282491
vt 0.269944 0.278298
vt 0.574570 0.081093
vt 0.022284 0.194388
vt 0.419903 0.690285
vt 0.208887 0.422751
vt 0.527867 0.010891
vt 0.210723 0.005106
vt 0.535660 0.038105
vt 0.625920 0.498815
vt 0.656386 0.101750
vt 0.899924 0.392289
vt -0.000000 0.767297
vt 0.943293 0.526122
vt 0.775989 0.354961
vt 0.846934 0.625944
vt 1.000000 0.330646
vt 0.697934 0.601787
vt 0.656386 0.446726
vn -1.0000 0.0000 0.0000
vn 0.0000 0.0000 -1.0000
vn 1.0000 0.0000 0.0000
vn 0.0000 0.0000 1.0000
vn 0.0000 -1.0000 0.0000
vn 0.0000 1.0000 0.0000
vn -0.1960 -0.0450 0.9796
vn 0.3862 -0.4405 0.8104
vn 0.0266 0.3575 0.9335
vn 0.0302 -0.4284 -0.9031
vn 0.6755 -0.0741 -0.7336
vn 0.3644 -0.8551 -0.3687
vn 0.4050 -0.8896 0.2111
vn 0.9444 -0.2676 -0.1908
vn 0.9222 0.0065 0.3867
vn 0.8139 -0.0642 0.5774
vn -0.3451 0.5171 -0.7833
vn -0.4171 0.1918 -0.8884
vn -0.7498 -0.0186 -0.6615
vn -0.4241 0.5285 0.7354
vn -0.7871 -0.2483 0.5647
vn -0.2955 0.4385 -0.8488
vn 0.4628 0.4048 -0.7886
vn -0.7841 0.4038 -0.4713
vn -0.8543 0.5197 0.0072
vn -0.9088 -0.2229 -0.3528
vn -0.9036 -0.0396 0.4265
vn 0.7779 0.3930 0.4904
vn 0.9073 -0.2703 -0.3221
vn -0.5291 -0.8359 0.1460
vn -0.7970 -0.4721 -0.3767
vn -0.3587 -0.8245 -0.4376
vn -0.1824 -0.8332 0.5221
vn -0.7402 -0.3868 0.5499
vn -0.8131 0.3961 0.4266
vn 0.3478 0.4711 0.8106
vn -0.1658 0.4203 -0.8921
vn 0.7238 0.3971 -0.5643
vn 0.8501 0.4705 0.2365
vn -0.7219 0.0024 0.6920
vn -0.1561 -0.4166 0.8956
vn -0.5119 0.4087 0.7555
vn 0.5331 -0.4540 -0.7140
vn 0.9716 -0.1109 -0.2089
vn 0.4935 -0.8657 -0.0832
vn 0.2045 -0.8867 0.4145
vn 0.8817 -0.2656 0.3901
vn 0.5307 0.0185 0.8473
vn 0.3319 -0.0350 0.9426
vn 0.1873 0.4695 -0.8628
vn 0.1666 0.1588 -0.9732
vn -0.2384 -0.0455 -0.9701
vn -0.7492 0.5696 0.3379
vn -0.9754 -0.2195 0.0186
vn 0.2588 0.3936 -0.8821
vn 0.8356 0.3618 -0.4135
vn -0.3250 0.3747 -0.8683
vn -0.6863 0.5191 -0.5094
vn -0.5492 -0.2350 -0.8020
vn -0.9870 -0.0150 -0.1603
vn 0.3970 0.4181 0.8171
vn 0.9218 -0.2856 0.2620
vn -0.5287 -0.8301 -0.1771
vn -0.4314 -0.4866 -0.7597
vn -0.0472 -0.8343 -0.5492
vn -0.4634 -0.8188 0.3388
vn -0.9312 -0.3637 0.0247
vn -0.8916 0.4145 -0.1821
vn -0.1629 0.5159 0.8410
vn 0.3851 0.3708 -0.8451
vn 0.9285 0.3591 -0.0948
vn 0.5737 0.4897 0.6566
vn -0.9842 0.0832 0.1560
vn -0.6661 -0.3066 0.6800
vn -0.8410 0.4976 0.2122
vn 0.8164 -0.5301 -0.2289
vn 0.9092 -0.1134 0.4006
vn 0.4113 -0.8640 0.2904
vn -0.1147 -0.8348 0.5384
vn 0.4852 -0.2328 0.8429
vn -0.0477 0.1470 0.9880
vn -0.2722 0.1096 0.9560
vn 0.6738 0.3317 -0.6603
vn 0.6964 0.0392 -0.7166
vn 0.3586 -0.1858 -0.9148
vn -0.7702 0.5941 -0.2321
vn -0.8276 -0.2342 -0.5102
vn 0.7230 0.2495 -0.6442
vn 0.9479 0.3138 0.0550
vn 0.2406 0.2257 -0.9440
vn -0.2319 0.4064 -0.8838
vn -0.0154 -0.3571 -0.9339
vn -0.7252 -0.0567 -0.6861
vn -0.1279 0.5590 0.8192
vn 0.5958 -0.2231 0.7716
vn -0.3695 -0.8519 -0.3711
vn 0.0545 -0.5905 -0.8052
vn 0.2289 -0.8901 -0.3941
vn -0.6161 -0.7835 0.0807
vn -0.7854 -0.3845 -0.4850
vn -0.5667 0.3356 -0.7525
vn -0.5678 0.6367 0.5218
vn 0.7744 0.2398 -0.5855
vn 0.8563 0.3555 0.3748
vn 0.1277 0.6094 0.7825
vn -0.9367 -0.3329 -0.1086
vn 0.1713 0.9387 -0.2991
vn -0.3595 -0.6024 -0.7127
vn -0.7323 -0.1503 0.6642
vn 0.4848 -0.7148 -0.5040
vn 0.7953 -0.5112 0.3258
vn 0.1225 -0.1950 0.9731
s off
f 2/1/1 3/2/1 1/3/1
f 4/4/2 7/5/2 3/2/2
f 8/6/3 5/7/3 7/5/3
f 6/8/4 1/9/4 5/7/4
f 7/5/5 1/10/5 3/11/5
f 4/12/6 6/8/6 8/6/6
f 2/1/1 4/4/1 3/2/1
f 4/4/2 8/6/2 7/5/2
f 8/6/3 6/8/3 5/7/3
f 6/8/4 2/13/4 1/9/4
f 7/5/5 5/7/5 1/10/5
f 4/12/6 2/14/6 6/8/6
s 1
f 33/15/7 24/16/8 15/17/9
f 22/18/10 28/19/11 27/20/12
f 29/21/13 23/22/14 30/23/15
f 29/21/13 31/24/16 24/25/8
f 20/26/17 40/27/18 39/28/19
f 16/29/20 34/30/21 33/15/7
f 22/18/10 9/31/22 10/32/23
f 19/33/24 20/26/17 39/28/19
f 18/34/25 37/35/26 36/36/27
f 13/37/28 31/24/16 30/23/15
f 28/19/11 41/38/29 27/20/12
f 22/18/10 40/27/18 9/31/22
f 35/39/30 26/40/31 38/41/32
f 27/20/12 32/42/33 35/39/30
f 29/21/13 24/16/8 32/42/33
f 25/43/34 17/44/35 36/36/27
f 22/18/10 27/20/12 38/41/32
f 26/45/31 19/33/24 39/28/19
f 38/41/32 40/27/18 22/18/10
f 24/16/8 31/24/16 14/46/36
f 40/27/18 21/47/37 9/31/22
f 41/38/29 30/23/15 23/22/14
f 32/42/33 25/48/34 35/39/30
f 24/16/8 14/46/36 15/17/9
f 20/26/17 21/47/37 40/27/18
f 35/39/30 25/49/34 36/36/27
f 30/23/15 31/24/16 29/21/13
f 11/50/38 41/38/29 28/19/11
f 38/41/32 26/45/31 39/28/19
f 10/32/23 11/50/38 28/51/11
f 12/52/39 13/37/28 30/23/15
f 13/37/28 14/46/36 31/24/16
f 33/15/7 34/30/21 32/42/33
f 11/50/38 12/52/39 41/38/29
f 29/21/13 41/38/29 23/53/14
f 36/36/27 37/35/26 35/39/30
f 15/17/9 16/29/20 33/15/7
f 16/29/20 17/54/35 34/30/21
f 17/44/35 18/34/25 36/36/27
f 18/34/25 19/33/24 37/35/26
f 66/55/40 57/56/41 48/57/42
f 55/58/43 61/59/44 60/60/45
f 62/61/46 56/62/47 63/63/48
f 62/61/46 64/64/49 57/65/41
f 53/66/50 73/67/51 72/68/52
f 49/69/53 67/70/54 66/55/40
f 55/58/43 42/71/55 43/72/56
f 52/73/57 53/66/50 72/68/52
f 51/74/58 70/75/59 69/76/60
f 46/77/61 64/64/49 63/63/48
f 61/59/44 74/78/62 60/60/45
f 55/58/43 73/67/51 42/71/55
f 68/79/63 59/80/64 71/81/65
f 60/60/45 65/82/66 68/79/63
f 62/61/46 57/56/41 65/82/66
f 58/83/67 50/84/68 69/76/60
f 55/58/43 60/60/45 71/81/65
f 59/85/64 52/73/57 72/68/52
f 71/81/65 73/67/51 55/58/43
f 57/56/41 64/64/49 47/86/69
f 73/67/51 54/87/70 42/71/55
f 74/78/62 63/63/48 56/62/47
f 65/82/66 58/88/67 68/79/63
f 57/56/41 47/86/69 48/57/42
f 53/66/50 54/87/70 73/67/51
f 68/79/63 58/89/67 69/76/60
f 63/63/48 64/64/49 62/61/46
f 44/90/71 74/78/62 61/59/44
f 71/81/65 59/85/64 72/68/52
f 43/72/56 44/90/71 61/91/44
f 45/92/72 46/77/61 63/63/48
f 46/77/61 47/86/69 64/64/49
f 66/55/40 67/70/54 65/82/66
f 44/90/71 45/92/72 74/78/62
f 62/61/46 74/78/62 56/93/47
f 69/76/60 70/75/59 68/79/63
f 48/57/42 49/69/53 66/55/40
f 49/69/53 50/94/68 67/70/54
f 50/84/68 51/74/58 69/76/60
f 51/74/58 52/73/57 70/75/59
f 99/95/73 90/96/74 81/97/75
f 88/98/76 94/99/77 93/100/78
f 95/101/79 89/102/80 96/103/81
f 95/101/79 97/104/82 90/105/74
f 86/106/83 106/107/84 105/108/85
f 82/109/86 100/110/87 99/95/73
f 88/98/76 75/111/88 76/112/89
f 85/113/90 86/106/83 105/108/85
f 84/114/91 103/115/92 102/116/93
f 79/117/94 97/104/82 96/103/81
f 94/99/77 107/118/95 93/100/78
f 88/98/76 106/107/84 75/111/88
f 101/119/96 92/120/97 104/121/98
f 93/100/78 98/122/99 101/119/96
f 95/101/79 90/96/74 98/122/99
f 91/123/100 83/124/101 102/116/93
f 88/98/76 93/100/78 104/121/98
f 92/125/97 85/113/90 105/108/85
f 104/121/98 106/107/84 88/98/76
f 90/96/74 97/104/82 80/126/102
f 106/107/84 87/127/103 75/111/88
f 107/118/95 96/103/81 89/102/80
f 98/122/99 91/128/100 101/119/96
f 90/96/74 80/126/102 81/97/75
f 86/106/83 87/127/103 106/107/84
f 101/119/96 91/129/100 102/116/93
f 96/103/81 97/104/82 95/101/79
f 77/130/104 107/118/95 94/99/77
f 104/121/98 92/125/97 105/108/85
f 76/112/89 77/130/104 94/131/77
f 78/132/105 79/117/94 96/103/81
f 79/117/94 80/126/102 97/104/82
f 99/95/73 100/110/87 98/122/99
f 77/130/104 78/132/105 107/118/95
f 95/101/79 107/118/95 89/133/80
f 102/116/93 103/115/92 101/119/96
f 81/97/75 82/109/86 99/95/73
f 82/109/86 83/134/101 100/110/87
f 83/124/101 84/114/91 102/116/93
f 84/114/91 85/113/90 103/115/92
f 111/135/106 114/136/107 112/137/108
f 110/138/109 114/136/107 111/135/106
f 111/135/106 112/137/108 113/139/110
f 113/139/110 114/140/107 108/141/111
f 108/141/111 114/140/107 109/142/112
f 114/136/107 110/138/109 109/142/112
f 112/137/108 114/140/107 113/139/110
f 33/15/7 32/42/33 24/16/8
f 22/18/10 10/32/23 28/19/11
f 35/39/30 37/35/26 26/40/31
f 35/39/30 38/41/32 27/20/12
f 27/20/12 29/21/13 32/42/33
f 25/43/34 34/30/21 17/44/35
f 26/45/31 37/35/26 19/33/24
f 38/41/32 39/28/19 40/27/18
f 41/38/29 12/52/39 30/23/15
f 32/42/33 34/30/21 25/48/34
f 29/21/13 27/20/12 41/38/29
f 66/55/40 65/82/66 57/56/41
f 55/58/43 43/72/56 61/59/44
f 68/79/63 70/75/59 59/80/64
f 68/79/63 71/81/65 60/60/45
f 60/60/45 62/61/46 65/82/66
f 58/83/67 67/70/54 50/84/68
f 59/85/64 70/75/59 52/73/57
f 71/81/65 72/68/52 73/67/51
f 74/78/62 45/92/72 63/63/48
f 65/82/66 67/70/54 58/88/67
f 62/61/46 60/60/45 74/78/62
f 99/95/73 98/122/99 90/96/74
f 88/98/76 76/112/89 94/99/77
f 101/119/96 103/115/92 92/120/97
f 101/119/96 104/121/98 93/100/78
f 93/100/78 95/101/79 98/122/99
f 91/123/100 100/110/87 83/124/101
f 92/125/97 103/115/92 85/113/90
f 104/121/98 105/108/85 106/107/84
f 107/118/95 78/132/105 96/103/81
f 98/122/99 100/110/87 91/128/100
f 95/101/79 93/100/78 107/118/95
f 113/139/110 108/141/111 110/138/109
f 108/141/111 109/142/112 110/138/109
f 110/138/109 111/135/106 113/139/110
